<svg width="629" height="629" viewBox="0 0 629 629" fill="none" xmlns="http://www.w3.org/2000/svg">
<circle cx="314.5" cy="314.5" r="314.5" fill="#3A4A32"/>
<path d="M365.276 223.498C311.244 204.659 310.059 149.504 256.45 130.981C208.596 114.444 161.822 131.721 151.528 180.223C142.387 223.286 181.332 256.825 179.882 300.607C178.348 346.976 171.588 394.591 216.14 432.279C303.615 506.368 411.288 406.766 452.074 339.446C467.711 313.606 503.408 251.017 472.007 225.662C440.362 200.097 398.444 235.05 365.276 223.498Z" fill="#79D941"/>
<path opacity="0.9" d="M365.276 223.498C311.244 204.659 310.059 149.504 256.45 130.981C208.596 114.444 161.822 131.721 151.528 180.223C142.387 223.286 181.332 256.825 179.882 300.607C178.348 346.976 171.588 394.591 216.14 432.279C303.615 506.368 411.288 406.766 452.074 339.446C467.711 313.606 503.408 251.017 472.007 225.662C440.362 200.097 398.444 235.05 365.276 223.498Z" fill="white"/>
<path d="M326.5 502.503C439.793 502.503 531.636 497.151 531.636 490.549C531.636 483.947 439.793 478.596 326.5 478.596C213.207 478.596 121.365 483.947 121.365 490.549C121.365 497.151 213.207 502.503 326.5 502.503Z" fill="#F5F5F5"/>
<path d="M147.063 381.401H284.18C284.18 381.401 229.481 367.768 234.687 310.185C239.289 259.201 268.543 189.801 229.915 196.073C193.52 202.008 147.105 283.32 140.175 365.952C139.498 374.052 142.768 381.401 147.063 381.401Z" fill="#79D941"/>
<path opacity="0.3" d="M147.063 381.401H284.18C284.18 381.401 229.481 367.768 234.687 310.185C239.289 259.201 268.543 189.801 229.915 196.073C193.52 202.008 147.105 283.32 140.175 365.952C139.498 374.052 142.768 381.401 147.063 381.401Z" fill="black"/>
<path d="M218.394 381.401H349.882C357.69 381.401 360.546 361.812 353.87 354.03C340.963 338.961 330.679 316.447 333.642 283.595C339.884 214.5 392.678 143.949 340.328 152.45C294.305 159.937 219.504 237.099 202.069 338.306C198.419 359.563 206.713 381.401 218.394 381.401Z" fill="#79D941"/>
<path opacity="0.1" d="M252.567 275.928C262.417 275.622 292.295 229.929 269.77 228.704C252.768 227.732 235.967 276.414 252.567 275.928Z" fill="black"/>
<path opacity="0.1" d="M250.969 363.037C260.163 365.994 292.464 281.535 271.167 282.781C254.355 283.827 235.512 358.053 250.969 363.037Z" fill="black"/>
<path opacity="0.1" d="M302.917 201.828C308.8 204.933 330.732 187.71 317.444 179.473C307.456 173.264 292.993 196.601 302.917 201.828Z" fill="black"/>
<path opacity="0.1" d="M322.448 280.543C328.383 271.598 344.348 199.854 330.309 219.126C319.718 233.688 312.45 295.622 322.448 280.543Z" fill="black"/>
<path opacity="0.1" d="M291.523 291.705C294.517 285.115 300.526 240.636 293.374 255.167C287.978 266.128 286.487 302.814 291.523 291.705Z" fill="black"/>
<path opacity="0.1" d="M301.616 341.727C303.806 334.071 304.79 288.167 299.394 305.264C295.331 318.168 297.934 354.611 301.616 341.727Z" fill="black"/>
<path opacity="0.1" d="M225.821 346.458C229.682 341.833 242.251 302.666 233.227 312.561C226.35 320.027 219.303 354.262 225.821 346.458Z" fill="black"/>
<path opacity="0.1" d="M271.135 215.831C273.717 215.715 285.735 203.56 279.832 203.391C275.378 203.254 266.787 216.042 271.135 215.831Z" fill="black"/>
<path opacity="0.1" d="M307.795 252.326C310.006 249.792 317.317 227.922 312.164 233.318C308.25 237.395 304.06 256.593 307.795 252.326Z" fill="black"/>
<path opacity="0.1" d="M320.723 330.249C321.231 325.412 317.697 300.322 316.301 311.241C315.253 319.562 319.866 338.401 320.723 330.249Z" fill="black"/>
<path opacity="0.1" d="M331.515 173.602C333.536 174.805 344.528 171.49 339.979 168.322C336.54 165.988 328.119 171.585 331.515 173.602Z" fill="black"/>
<path opacity="0.1" d="M337.757 198.492C339.259 197.7 345.364 187.245 341.894 188.787C339.281 189.959 335.228 199.833 337.757 198.492Z" fill="black"/>
<path d="M370.661 384.918H136.187V196.179C136.123 195.96 135.989 195.767 135.806 195.63C135.623 195.493 135.4 195.419 135.171 195.419C134.942 195.419 134.72 195.493 134.536 195.63C134.353 195.767 134.22 195.96 134.156 196.179V384.918H127.596C127.376 384.982 127.183 385.115 127.046 385.298C126.908 385.481 126.834 385.703 126.834 385.932C126.834 386.16 126.908 386.382 127.046 386.565C127.183 386.748 127.376 386.881 127.596 386.945H134.156V393.535C134.11 393.692 134.101 393.858 134.13 394.019C134.16 394.181 134.226 394.333 134.325 394.464C134.423 394.595 134.551 394.702 134.698 394.775C134.845 394.848 135.007 394.886 135.171 394.886C135.336 394.886 135.498 394.848 135.644 394.775C135.791 394.702 135.919 394.595 136.018 394.464C136.116 394.333 136.183 394.181 136.212 394.019C136.242 393.858 136.233 393.692 136.187 393.535V386.945H370.661C370.819 386.991 370.985 387 371.146 386.971C371.308 386.941 371.461 386.875 371.592 386.776C371.723 386.678 371.83 386.55 371.903 386.404C371.977 386.257 372.015 386.096 372.015 385.932C372.015 385.768 371.977 385.606 371.903 385.459C371.83 385.313 371.723 385.185 371.592 385.087C371.461 384.988 371.308 384.922 371.146 384.893C370.985 384.863 370.819 384.872 370.661 384.918Z" fill="#79D941"/>
<path opacity="0.7" d="M370.661 384.918H136.187V196.179C136.123 195.96 135.989 195.767 135.806 195.63C135.623 195.493 135.4 195.419 135.171 195.419C134.942 195.419 134.72 195.493 134.536 195.63C134.353 195.767 134.22 195.96 134.156 196.179V384.918H127.596C127.376 384.982 127.183 385.115 127.046 385.298C126.908 385.481 126.834 385.703 126.834 385.932C126.834 386.16 126.908 386.382 127.046 386.565C127.183 386.748 127.376 386.881 127.596 386.945H134.156V393.535C134.11 393.692 134.101 393.858 134.13 394.019C134.16 394.181 134.226 394.333 134.325 394.464C134.423 394.595 134.551 394.702 134.698 394.775C134.845 394.848 135.007 394.886 135.171 394.886C135.336 394.886 135.498 394.848 135.644 394.775C135.791 394.702 135.919 394.595 136.018 394.464C136.116 394.333 136.183 394.181 136.212 394.019C136.242 393.858 136.233 393.692 136.187 393.535V386.945H370.661C370.819 386.991 370.985 387 371.146 386.971C371.308 386.941 371.461 386.875 371.592 386.776C371.723 386.678 371.83 386.55 371.903 386.404C371.977 386.257 372.015 386.096 372.015 385.932C372.015 385.768 371.977 385.606 371.903 385.459C371.83 385.313 371.723 385.185 371.592 385.087C371.461 384.988 371.308 384.922 371.146 384.893C370.985 384.863 370.819 384.872 370.661 384.918Z" fill="white"/>
<path d="M366.704 171.384C365.994 172.195 365.059 172.778 364.017 173.059C362.975 173.339 361.874 173.306 360.851 172.962C359.828 172.618 358.931 171.98 358.271 171.127C357.612 170.274 357.221 169.246 357.147 168.171C357.073 167.096 357.32 166.024 357.857 165.09C358.393 164.155 359.195 163.4 360.161 162.92C361.127 162.44 362.214 162.257 363.284 162.393C364.355 162.529 365.361 162.979 366.175 163.686C366.717 164.156 367.161 164.728 367.481 165.37C367.801 166.012 367.991 166.71 368.04 167.425C368.089 168.14 367.997 168.858 367.767 169.538C367.538 170.217 367.177 170.844 366.704 171.384Z" fill="#263238"/>
<path d="M365.202 164.742C365.084 164.638 365.012 164.492 365.002 164.336C364.992 164.179 365.045 164.025 365.149 163.908L366.27 162.619C366.374 162.503 366.519 162.431 366.675 162.419C366.831 162.407 366.986 162.456 367.106 162.556C367.221 162.661 367.291 162.807 367.301 162.962C367.311 163.118 367.26 163.271 367.159 163.39L366.037 164.678C365.933 164.795 365.788 164.867 365.632 164.879C365.476 164.891 365.322 164.841 365.202 164.742Z" fill="#263238"/>
<path d="M366.006 161.605C366.118 161.498 366.268 161.437 366.424 161.437C366.579 161.437 366.729 161.498 366.841 161.605L368.132 162.725C368.249 162.829 368.321 162.973 368.333 163.129C368.345 163.285 368.296 163.439 368.196 163.559C368.085 163.669 367.934 163.731 367.778 163.731C367.621 163.731 367.471 163.669 367.36 163.559L366.069 162.44C365.952 162.336 365.88 162.191 365.868 162.035C365.857 161.88 365.906 161.726 366.006 161.605Z" fill="#263238"/>
<path d="M359.933 170.782C360.041 170.894 360.101 171.044 360.101 171.199C360.101 171.355 360.041 171.504 359.933 171.616L358.811 172.905C358.7 173.015 358.55 173.077 358.393 173.077C358.237 173.077 358.087 173.015 357.976 172.905C357.916 172.855 357.868 172.794 357.833 172.725C357.798 172.656 357.777 172.581 357.772 172.504C357.767 172.427 357.778 172.35 357.804 172.277C357.83 172.204 357.87 172.138 357.923 172.081L359.044 170.793C359.099 170.729 359.167 170.678 359.243 170.642C359.319 170.607 359.402 170.588 359.486 170.587C359.57 170.586 359.653 170.603 359.73 170.637C359.807 170.67 359.876 170.72 359.933 170.782Z" fill="#263238"/>
<path d="M359.118 173.908C359.014 174.025 358.869 174.096 358.713 174.108C358.557 174.12 358.403 174.071 358.282 173.971L356.991 172.841C356.933 172.791 356.886 172.73 356.852 172.661C356.818 172.592 356.798 172.517 356.793 172.44C356.788 172.364 356.798 172.287 356.823 172.214C356.848 172.142 356.887 172.075 356.939 172.018C356.989 171.959 357.051 171.91 357.121 171.875C357.19 171.84 357.266 171.819 357.343 171.813C357.421 171.807 357.499 171.817 357.573 171.841C357.647 171.865 357.715 171.904 357.774 171.954L359.065 173.074C359.18 173.179 359.25 173.324 359.26 173.48C359.27 173.636 359.219 173.789 359.118 173.908Z" fill="#263238"/>
<path d="M365.646 170.391C365.757 170.281 365.907 170.219 366.064 170.219C366.22 170.219 366.371 170.281 366.482 170.391L367.773 171.511C367.89 171.614 367.962 171.76 367.972 171.917C367.982 172.073 367.929 172.227 367.825 172.345C367.771 172.399 367.707 172.442 367.636 172.472C367.565 172.501 367.489 172.516 367.413 172.516C367.336 172.516 367.26 172.501 367.189 172.472C367.119 172.442 367.054 172.399 367 172.345L365.646 171.226C365.535 171.115 365.473 170.965 365.473 170.808C365.473 170.652 365.535 170.502 365.646 170.391Z" fill="#263238"/>
<path d="M368.725 171.194C368.842 171.298 368.914 171.443 368.925 171.598C368.937 171.754 368.888 171.908 368.788 172.028L367.656 173.316C367.606 173.375 367.545 173.423 367.477 173.458C367.408 173.493 367.334 173.514 367.257 173.52C367.18 173.526 367.103 173.517 367.03 173.493C366.957 173.469 366.889 173.43 366.831 173.38C366.772 173.329 366.723 173.268 366.688 173.198C366.653 173.129 366.632 173.053 366.626 172.976C366.62 172.898 366.63 172.821 366.654 172.747C366.678 172.673 366.717 172.605 366.767 172.546L367.889 171.257C367.993 171.141 368.138 171.069 368.294 171.057C368.45 171.045 368.604 171.094 368.725 171.194Z" fill="#263238"/>
<path d="M359.541 165.132C359.429 165.24 359.279 165.3 359.124 165.3C358.968 165.3 358.818 165.24 358.706 165.132L357.415 164.013C357.298 163.909 357.226 163.764 357.214 163.609C357.202 163.453 357.251 163.299 357.351 163.179C357.462 163.069 357.613 163.007 357.769 163.007C357.926 163.007 358.076 163.069 358.187 163.179L359.478 164.298C359.595 164.402 359.667 164.547 359.679 164.703C359.69 164.858 359.641 165.012 359.541 165.132Z" fill="#263238"/>
<path d="M356.399 164.319C356.281 164.216 356.21 164.07 356.2 163.913C356.19 163.757 356.242 163.603 356.346 163.485L357.468 162.197C357.58 162.089 357.73 162.029 357.886 162.029C358.041 162.029 358.191 162.089 358.303 162.197C358.421 162.3 358.493 162.447 358.503 162.603C358.513 162.759 358.46 162.913 358.356 163.031L357.235 164.319C357.124 164.43 356.974 164.492 356.817 164.492C356.66 164.492 356.51 164.43 356.399 164.319Z" fill="#263238"/>
<path d="M366.164 167.508C366.156 167.37 366.202 167.234 366.293 167.129C366.384 167.024 366.513 166.96 366.651 166.949L368.196 166.843C368.334 166.834 368.471 166.881 368.576 166.971C368.681 167.062 368.746 167.191 368.756 167.329C368.762 167.399 368.754 167.47 368.732 167.537C368.71 167.604 368.675 167.666 368.628 167.719C368.582 167.772 368.525 167.815 368.462 167.846C368.399 167.877 368.33 167.895 368.259 167.899L366.725 168.005C366.656 168.009 366.586 168 366.52 167.977C366.454 167.954 366.394 167.919 366.342 167.873C366.289 167.827 366.247 167.771 366.217 167.708C366.186 167.646 366.168 167.578 366.164 167.508Z" fill="#263238"/>
<path d="M368.672 166.041C368.81 166.032 368.947 166.078 369.052 166.169C369.157 166.26 369.222 166.388 369.233 166.526L369.338 168.058C369.344 168.127 369.336 168.197 369.315 168.263C369.293 168.329 369.259 168.391 369.214 168.444C369.169 168.497 369.113 168.54 369.051 168.572C368.989 168.604 368.921 168.623 368.852 168.628C368.781 168.634 368.711 168.625 368.644 168.603C368.576 168.581 368.514 168.546 368.461 168.5C368.408 168.454 368.365 168.397 368.334 168.334C368.302 168.271 368.284 168.202 368.28 168.132L368.175 166.6C368.17 166.531 368.18 166.461 368.202 166.396C368.225 166.33 368.261 166.269 368.307 166.217C368.353 166.165 368.409 166.123 368.472 166.093C368.534 166.062 368.602 166.045 368.672 166.041Z" fill="#263238"/>
<path d="M358.97 168.005C358.976 168.075 358.967 168.146 358.945 168.213C358.923 168.28 358.888 168.341 358.842 168.395C358.795 168.448 358.739 168.491 358.675 168.522C358.612 168.553 358.543 168.571 358.473 168.575L356.939 168.681C356.869 168.685 356.799 168.675 356.734 168.653C356.668 168.63 356.607 168.595 356.555 168.549C356.503 168.503 356.46 168.447 356.43 168.384C356.4 168.322 356.382 168.254 356.378 168.184C356.369 168.046 356.415 167.91 356.506 167.805C356.597 167.7 356.726 167.635 356.864 167.625L358.399 167.519C358.468 167.513 358.538 167.521 358.604 167.543C358.671 167.564 358.732 167.598 358.785 167.643C358.839 167.688 358.882 167.744 358.914 167.806C358.946 167.868 358.965 167.935 358.97 168.005Z" fill="#263238"/>
<path d="M356.463 169.483C356.393 169.487 356.323 169.478 356.258 169.455C356.192 169.433 356.131 169.397 356.079 169.351C356.027 169.305 355.984 169.249 355.954 169.187C355.924 169.124 355.906 169.056 355.902 168.987L355.796 167.456C355.787 167.317 355.833 167.181 355.924 167.076C356.015 166.972 356.144 166.907 356.283 166.896C356.352 166.89 356.422 166.898 356.489 166.92C356.555 166.941 356.616 166.975 356.67 167.02C356.723 167.065 356.766 167.121 356.798 167.183C356.83 167.245 356.849 167.312 356.854 167.382L356.96 168.913C356.966 168.983 356.957 169.054 356.935 169.121C356.913 169.188 356.878 169.25 356.832 169.303C356.785 169.356 356.729 169.399 356.665 169.43C356.602 169.461 356.533 169.479 356.463 169.483Z" fill="#263238"/>
<path d="M362.81 171.384C362.88 171.378 362.95 171.386 363.016 171.408C363.083 171.429 363.144 171.463 363.197 171.508C363.25 171.553 363.294 171.609 363.326 171.671C363.357 171.733 363.376 171.8 363.382 171.87L363.488 173.412C363.492 173.481 363.482 173.55 363.46 173.616C363.437 173.682 363.402 173.742 363.355 173.794C363.309 173.846 363.253 173.889 363.19 173.919C363.128 173.949 363.06 173.967 362.99 173.971C362.861 173.969 362.736 173.92 362.64 173.832C362.545 173.745 362.485 173.625 362.472 173.496L362.366 171.965C362.351 171.829 362.389 171.694 362.471 171.585C362.554 171.477 362.676 171.405 362.81 171.384Z" fill="#263238"/>
<path d="M364.292 173.855C364.296 173.924 364.287 173.994 364.264 174.06C364.241 174.125 364.206 174.186 364.159 174.238C364.113 174.29 364.057 174.332 363.995 174.363C363.932 174.393 363.864 174.411 363.794 174.415L362.26 174.52C362.122 174.529 361.985 174.483 361.88 174.392C361.775 174.301 361.71 174.173 361.7 174.035C361.694 173.965 361.702 173.895 361.723 173.829C361.745 173.763 361.779 173.701 361.824 173.648C361.869 173.595 361.925 173.552 361.987 173.52C362.049 173.489 362.117 173.47 362.186 173.464L363.72 173.359C363.791 173.353 363.861 173.361 363.929 173.383C363.996 173.405 364.058 173.44 364.111 173.487C364.164 173.533 364.208 173.589 364.239 173.653C364.27 173.716 364.288 173.785 364.292 173.855Z" fill="#263238"/>
<path d="M362.313 164.172C362.244 164.176 362.174 164.166 362.108 164.144C362.043 164.121 361.982 164.086 361.93 164.04C361.878 163.993 361.835 163.938 361.805 163.875C361.774 163.812 361.757 163.745 361.753 163.675L361.647 162.144C361.641 162.075 361.649 162.006 361.671 161.94C361.692 161.875 361.727 161.814 361.772 161.762C361.817 161.71 361.873 161.667 361.935 161.637C361.997 161.606 362.064 161.588 362.133 161.584C362.203 161.579 362.273 161.587 362.339 161.608C362.406 161.629 362.467 161.663 362.52 161.709C362.574 161.754 362.617 161.809 362.649 161.871C362.68 161.933 362.699 162.001 362.705 162.07L362.811 163.601C362.816 163.672 362.808 163.742 362.786 163.809C362.764 163.876 362.729 163.938 362.682 163.991C362.636 164.044 362.58 164.088 362.516 164.119C362.453 164.15 362.384 164.168 362.313 164.172Z" fill="#263238"/>
<path d="M360.843 161.669C360.837 161.6 360.845 161.531 360.866 161.465C360.888 161.399 360.922 161.339 360.968 161.287C361.013 161.234 361.068 161.192 361.131 161.161C361.193 161.131 361.26 161.113 361.329 161.109L362.863 161.004C362.933 160.998 363.003 161.006 363.069 161.027C363.136 161.048 363.197 161.083 363.25 161.128C363.303 161.173 363.347 161.228 363.379 161.29C363.41 161.352 363.429 161.42 363.435 161.489C363.441 161.559 363.432 161.63 363.41 161.697C363.388 161.764 363.353 161.826 363.307 161.879C363.26 161.932 363.204 161.976 363.14 162.007C363.077 162.038 363.008 162.056 362.937 162.06L361.403 162.165C361.334 162.169 361.264 162.16 361.198 162.137C361.133 162.115 361.072 162.079 361.02 162.033C360.968 161.987 360.925 161.931 360.895 161.869C360.864 161.806 360.847 161.738 360.843 161.669Z" fill="#263238"/>
<path d="M319.263 225.546C318.642 226.258 317.823 226.769 316.911 227.016C315.998 227.263 315.032 227.235 314.136 226.934C313.239 226.634 312.452 226.075 311.874 225.328C311.296 224.581 310.953 223.68 310.888 222.738C310.823 221.796 311.039 220.857 311.509 220.038C311.979 219.219 312.681 218.557 313.528 218.137C314.375 217.716 315.327 217.555 316.265 217.675C317.203 217.795 318.084 218.189 318.798 218.809C319.272 219.221 319.66 219.722 319.94 220.283C320.22 220.845 320.386 221.456 320.429 222.081C320.473 222.707 320.392 223.335 320.192 223.93C319.992 224.524 319.676 225.073 319.263 225.546Z" fill="#263238"/>
<path d="M317.962 219.759C317.866 219.662 317.812 219.532 317.812 219.395C317.812 219.259 317.866 219.128 317.962 219.031L318.946 217.901C319.043 217.805 319.174 217.751 319.311 217.751C319.448 217.751 319.579 217.805 319.676 217.901C319.777 217.992 319.839 218.119 319.849 218.255C319.859 218.39 319.816 218.525 319.729 218.629L318.734 219.759C318.686 219.814 318.626 219.857 318.56 219.887C318.493 219.916 318.421 219.932 318.348 219.932C318.275 219.932 318.203 219.916 318.137 219.887C318.07 219.857 318.011 219.814 317.962 219.759Z" fill="#263238"/>
<path d="M318.671 217.024C318.762 216.923 318.889 216.861 319.025 216.852C319.161 216.842 319.296 216.885 319.401 216.972L320.533 217.954C320.582 218.001 320.621 218.057 320.647 218.12C320.674 218.183 320.688 218.25 320.688 218.318C320.688 218.386 320.674 218.453 320.647 218.516C320.621 218.578 320.582 218.635 320.533 218.682C320.489 218.735 320.435 218.778 320.375 218.809C320.314 218.84 320.247 218.859 320.179 218.864C320.111 218.869 320.042 218.86 319.978 218.838C319.913 218.816 319.854 218.781 319.803 218.735L318.671 217.753C318.577 217.655 318.525 217.524 318.525 217.389C318.525 217.253 318.577 217.123 318.671 217.024Z" fill="#263238"/>
<path d="M313.349 225.06C313.45 225.152 313.512 225.278 313.522 225.414C313.532 225.55 313.489 225.684 313.402 225.789L312.418 226.919C312.32 227.013 312.189 227.065 312.053 227.065C311.917 227.065 311.786 227.013 311.688 226.919C311.619 226.83 311.581 226.72 311.581 226.608C311.581 226.495 311.619 226.385 311.688 226.296L312.672 225.166C312.751 225.067 312.865 225.002 312.99 224.982C313.115 224.963 313.243 224.991 313.349 225.06Z" fill="#263238"/>
<path d="M312.64 227.796C312.597 227.848 312.543 227.891 312.482 227.922C312.421 227.953 312.355 227.972 312.287 227.977C312.218 227.982 312.15 227.973 312.085 227.951C312.021 227.929 311.961 227.894 311.91 227.848L310.778 226.866C310.684 226.768 310.632 226.638 310.632 226.502C310.632 226.366 310.684 226.236 310.778 226.138C310.877 226.044 311.007 225.992 311.143 225.992C311.279 225.992 311.41 226.044 311.508 226.138L312.64 227.12C312.721 227.214 312.766 227.334 312.766 227.458C312.766 227.582 312.721 227.702 312.64 227.796Z" fill="#263238"/>
<path d="M318.311 224.712C318.408 224.616 318.539 224.562 318.676 224.562C318.813 224.562 318.944 224.616 319.041 224.712L320.173 225.694C320.267 225.792 320.319 225.923 320.319 226.058C320.319 226.194 320.267 226.325 320.173 226.423C320.076 226.519 319.945 226.573 319.808 226.573C319.671 226.573 319.54 226.519 319.443 226.423L318.311 225.441C318.262 225.393 318.223 225.337 318.197 225.274C318.17 225.212 318.156 225.144 318.156 225.076C318.156 225.008 318.17 224.941 318.197 224.878C318.223 224.816 318.262 224.759 318.311 224.712Z" fill="#263238"/>
<path d="M321.051 225.42C321.104 225.463 321.147 225.517 321.178 225.578C321.21 225.638 321.228 225.705 321.233 225.773C321.238 225.841 321.229 225.909 321.207 225.974C321.185 226.038 321.15 226.097 321.104 226.148L320.12 227.278C320.073 227.327 320.016 227.366 319.954 227.392C319.891 227.419 319.823 227.433 319.755 227.433C319.687 227.433 319.62 227.419 319.557 227.392C319.494 227.366 319.438 227.327 319.39 227.278C319.289 227.187 319.227 227.06 319.217 226.924C319.207 226.789 319.25 226.654 319.337 226.549L320.321 225.42C320.42 225.326 320.55 225.274 320.686 225.274C320.822 225.274 320.953 225.326 321.051 225.42Z" fill="#263238"/>
<path d="M313 220.108C312.909 220.209 312.782 220.271 312.646 220.281C312.51 220.29 312.375 220.247 312.27 220.161L311.138 219.179C311.042 219.082 310.988 218.951 310.988 218.814C310.988 218.678 311.042 218.547 311.138 218.45C311.185 218.401 311.242 218.362 311.305 218.336C311.367 218.309 311.435 218.295 311.503 218.295C311.571 218.295 311.638 218.309 311.701 218.336C311.764 218.362 311.821 218.401 311.868 218.45L313 219.432C313.081 219.526 313.126 219.646 313.126 219.77C313.126 219.894 313.081 220.014 313 220.108Z" fill="#263238"/>
<path d="M310.26 219.4C310.158 219.309 310.096 219.182 310.087 219.047C310.077 218.911 310.12 218.777 310.207 218.672L311.191 217.542C311.282 217.441 311.409 217.379 311.545 217.369C311.681 217.359 311.816 217.402 311.921 217.489C311.973 217.533 312.016 217.586 312.048 217.647C312.079 217.708 312.098 217.774 312.103 217.842C312.107 217.91 312.099 217.978 312.076 218.043C312.054 218.107 312.019 218.167 311.974 218.218L310.99 219.348C310.9 219.451 310.772 219.515 310.636 219.524C310.499 219.534 310.364 219.49 310.26 219.4Z" fill="#263238"/>
<path d="M318.808 222.188C318.804 222.128 318.812 222.067 318.831 222.01C318.851 221.952 318.882 221.899 318.922 221.854C318.963 221.809 319.012 221.772 319.067 221.746C319.122 221.72 319.181 221.705 319.242 221.702L320.586 221.607C320.647 221.603 320.708 221.611 320.766 221.63C320.825 221.65 320.878 221.681 320.924 221.721C320.971 221.761 321.008 221.81 321.036 221.865C321.063 221.92 321.079 221.979 321.083 222.04C321.087 222.101 321.079 222.162 321.06 222.219C321.04 222.276 321.009 222.329 320.969 222.375C320.928 222.42 320.879 222.457 320.824 222.483C320.769 222.509 320.71 222.523 320.649 222.526L319.306 222.621C319.244 222.625 319.183 222.618 319.125 222.598C319.067 222.579 319.013 222.548 318.967 222.508C318.921 222.468 318.883 222.419 318.856 222.364C318.828 222.309 318.812 222.249 318.808 222.188Z" fill="#263238"/>
<path d="M320.998 220.9C321.06 220.896 321.121 220.903 321.179 220.923C321.237 220.942 321.291 220.973 321.337 221.013C321.383 221.053 321.421 221.102 321.448 221.157C321.476 221.212 321.492 221.272 321.496 221.333L321.591 222.674C321.595 222.735 321.587 222.796 321.568 222.854C321.548 222.912 321.518 222.966 321.477 223.012C321.437 223.058 321.388 223.096 321.333 223.123C321.278 223.15 321.218 223.166 321.157 223.17C321.096 223.175 321.035 223.167 320.976 223.147C320.918 223.128 320.865 223.097 320.818 223.057C320.772 223.017 320.734 222.968 320.707 222.913C320.68 222.858 320.664 222.798 320.66 222.737L320.575 221.396C320.566 221.275 320.606 221.154 320.685 221.062C320.764 220.969 320.877 220.911 320.998 220.9Z" fill="#263238"/>
<path d="M312.503 222.632C312.507 222.693 312.499 222.754 312.48 222.812C312.46 222.87 312.429 222.924 312.389 222.97C312.349 223.016 312.3 223.054 312.245 223.081C312.19 223.108 312.13 223.124 312.069 223.128L310.725 223.213C310.665 223.218 310.605 223.212 310.547 223.193C310.49 223.175 310.437 223.145 310.391 223.106C310.345 223.066 310.308 223.018 310.282 222.964C310.256 222.909 310.241 222.85 310.239 222.79C310.233 222.73 310.239 222.669 310.258 222.611C310.276 222.553 310.306 222.499 310.345 222.453C310.385 222.406 310.433 222.368 310.487 222.341C310.542 222.314 310.601 222.298 310.662 222.294L312.005 222.199C312.067 222.194 312.128 222.202 312.186 222.222C312.244 222.241 312.298 222.272 312.344 222.312C312.39 222.352 312.428 222.401 312.455 222.456C312.483 222.511 312.499 222.571 312.503 222.632Z" fill="#263238"/>
<path d="M310.313 223.92C310.251 223.924 310.19 223.917 310.132 223.897C310.074 223.878 310.02 223.847 309.974 223.807C309.928 223.766 309.89 223.717 309.863 223.663C309.835 223.608 309.819 223.548 309.815 223.487L309.72 222.146C309.714 222.023 309.756 221.903 309.837 221.811C309.918 221.718 310.031 221.66 310.154 221.65C310.277 221.644 310.397 221.685 310.49 221.766C310.582 221.847 310.64 221.96 310.651 222.083L310.746 223.424C310.752 223.546 310.71 223.667 310.63 223.759C310.549 223.852 310.435 223.909 310.313 223.92Z" fill="#263238"/>
<path d="M315.92 225.557C315.981 225.553 316.043 225.56 316.101 225.58C316.159 225.599 316.213 225.63 316.259 225.67C316.305 225.71 316.343 225.759 316.37 225.814C316.397 225.869 316.413 225.929 316.417 225.99L316.502 227.331C316.511 227.452 316.471 227.573 316.392 227.666C316.313 227.758 316.2 227.816 316.079 227.827C315.956 227.833 315.835 227.791 315.743 227.711C315.65 227.63 315.592 227.517 315.581 227.394L315.486 226.053C315.482 225.992 315.49 225.931 315.509 225.873C315.529 225.815 315.56 225.761 315.6 225.715C315.64 225.669 315.689 225.631 315.744 225.604C315.799 225.577 315.859 225.561 315.92 225.557Z" fill="#263238"/>
<path d="M317.168 227.743C317.173 227.804 317.165 227.865 317.145 227.923C317.126 227.981 317.095 228.035 317.055 228.081C317.014 228.127 316.965 228.165 316.91 228.192C316.856 228.219 316.796 228.235 316.735 228.239L315.391 228.334C315.33 228.338 315.268 228.331 315.21 228.311C315.152 228.292 315.098 228.261 315.052 228.221C315.006 228.181 314.968 228.132 314.941 228.077C314.914 228.022 314.898 227.962 314.894 227.901C314.888 227.778 314.93 227.658 315.01 227.566C315.091 227.473 315.205 227.416 315.327 227.405L316.671 227.32C316.793 227.312 316.913 227.351 317.006 227.43C317.099 227.509 317.158 227.621 317.168 227.743Z" fill="#263238"/>
<path d="M315.444 219.263C315.383 219.269 315.321 219.262 315.262 219.243C315.203 219.224 315.149 219.194 315.102 219.153C315.056 219.113 315.018 219.063 314.991 219.008C314.964 218.952 314.949 218.892 314.947 218.83L314.851 217.489C314.847 217.428 314.855 217.367 314.874 217.309C314.894 217.251 314.925 217.197 314.965 217.151C315.005 217.105 315.054 217.067 315.109 217.04C315.164 217.013 315.224 216.997 315.285 216.993C315.408 216.987 315.529 217.028 315.621 217.109C315.714 217.19 315.772 217.303 315.783 217.426L315.867 218.767C315.876 218.888 315.837 219.009 315.757 219.101C315.678 219.194 315.566 219.252 315.444 219.263Z" fill="#263238"/>
<path d="M314.143 217.077C314.137 216.955 314.179 216.834 314.259 216.742C314.34 216.649 314.454 216.592 314.576 216.581L315.92 216.486C316.043 216.48 316.163 216.522 316.256 216.602C316.349 216.683 316.407 216.796 316.417 216.919C316.422 216.98 316.414 217.041 316.394 217.099C316.375 217.157 316.344 217.211 316.304 217.257C316.263 217.303 316.214 217.341 316.159 217.368C316.105 217.395 316.045 217.411 315.984 217.415L314.64 217.51C314.517 217.516 314.397 217.474 314.304 217.394C314.211 217.313 314.153 217.199 314.143 217.077Z" fill="#263238"/>
<path d="M390.922 185.165C390.421 185.742 389.761 186.157 389.024 186.359C388.286 186.561 387.506 186.539 386.781 186.298C386.056 186.057 385.419 185.606 384.95 185.003C384.482 184.4 384.203 183.672 384.15 182.911C384.097 182.15 384.271 181.39 384.65 180.728C385.03 180.066 385.598 179.531 386.282 179.191C386.966 178.851 387.736 178.721 388.494 178.819C389.253 178.916 389.965 179.235 390.541 179.737C391.311 180.407 391.783 181.355 391.855 182.372C391.926 183.39 391.591 184.394 390.922 185.165Z" fill="#263238"/>
<path d="M389.874 180.497C389.835 180.46 389.803 180.415 389.782 180.365C389.761 180.315 389.75 180.261 389.75 180.207C389.75 180.153 389.761 180.099 389.782 180.049C389.803 179.999 389.835 179.954 389.874 179.916L390.668 179.008C390.705 178.969 390.75 178.938 390.8 178.916C390.85 178.895 390.904 178.884 390.959 178.884C391.013 178.884 391.067 178.895 391.117 178.916C391.167 178.938 391.212 178.969 391.249 179.008C391.289 179.046 391.32 179.091 391.342 179.141C391.363 179.191 391.374 179.244 391.374 179.299C391.374 179.353 391.363 179.407 391.342 179.457C391.32 179.507 391.289 179.552 391.249 179.589L390.456 180.508C390.418 180.546 390.372 180.577 390.322 180.597C390.271 180.618 390.217 180.628 390.163 180.627C390.108 180.626 390.055 180.614 390.005 180.592C389.955 180.569 389.911 180.537 389.874 180.497Z" fill="#263238"/>
<path d="M390.445 178.29C390.523 178.214 390.627 178.17 390.736 178.17C390.845 178.17 390.95 178.214 391.027 178.29L391.937 179.093C391.977 179.13 392.008 179.175 392.029 179.225C392.051 179.275 392.062 179.329 392.062 179.383C392.062 179.438 392.051 179.491 392.029 179.541C392.008 179.591 391.977 179.636 391.937 179.674C391.86 179.75 391.755 179.793 391.646 179.793C391.537 179.793 391.433 179.75 391.355 179.674L390.435 178.882C390.359 178.801 390.317 178.694 390.319 178.584C390.321 178.473 390.366 178.368 390.445 178.29Z" fill="#263238"/>
<path d="M386.15 184.774C386.19 184.812 386.221 184.857 386.242 184.907C386.264 184.956 386.275 185.01 386.275 185.064C386.275 185.119 386.264 185.173 386.242 185.222C386.221 185.272 386.19 185.317 386.15 185.355L385.357 186.274C385.319 186.313 385.274 186.344 385.224 186.366C385.174 186.387 385.12 186.398 385.066 186.398C385.011 186.398 384.957 186.387 384.907 186.366C384.857 186.344 384.812 186.313 384.775 186.274C384.735 186.236 384.704 186.191 384.683 186.141C384.661 186.091 384.65 186.038 384.65 185.983C384.65 185.929 384.661 185.875 384.683 185.825C384.704 185.775 384.735 185.73 384.775 185.693L385.568 184.785C385.645 184.709 385.749 184.666 385.857 184.664C385.965 184.662 386.07 184.701 386.15 184.774Z" fill="#263238"/>
<path d="M385.579 186.981C385.498 187.056 385.392 187.098 385.282 187.098C385.172 187.098 385.066 187.056 384.986 186.981L384.076 186.189C383.999 186.11 383.955 186.004 383.955 185.893C383.955 185.783 383.999 185.677 384.076 185.598C384.157 185.523 384.263 185.481 384.373 185.481C384.483 185.481 384.588 185.523 384.669 185.598L385.579 186.39C385.654 186.47 385.696 186.576 385.696 186.685C385.696 186.795 385.654 186.901 385.579 186.981Z" fill="#263238"/>
<path d="M390.149 184.5C390.187 184.46 390.232 184.429 390.282 184.408C390.332 184.386 390.386 184.375 390.44 184.375C390.495 184.375 390.548 184.386 390.598 184.408C390.648 184.429 390.694 184.46 390.731 184.5L391.652 185.292C391.691 185.329 391.722 185.374 391.744 185.424C391.765 185.474 391.776 185.528 391.776 185.582C391.776 185.636 391.765 185.69 391.744 185.74C391.722 185.79 391.691 185.835 391.652 185.872C391.614 185.912 391.569 185.943 391.519 185.964C391.469 185.986 391.415 185.997 391.361 185.997C391.306 185.997 391.252 185.986 391.202 185.964C391.152 185.943 391.107 185.912 391.07 185.872L390.16 185.08C390.12 185.044 390.088 184.999 390.065 184.95C390.043 184.9 390.031 184.846 390.03 184.792C390.029 184.738 390.039 184.684 390.059 184.634C390.08 184.583 390.11 184.538 390.149 184.5Z" fill="#263238"/>
<path d="M392.361 185.112C392.437 185.189 392.481 185.294 392.481 185.402C392.481 185.511 392.437 185.616 392.361 185.693L391.567 186.601C391.488 186.678 391.382 186.722 391.271 186.722C391.16 186.722 391.054 186.678 390.975 186.601C390.898 186.524 390.854 186.419 390.854 186.311C390.854 186.202 390.898 186.097 390.975 186.02L391.768 185.101C391.849 185.025 391.956 184.984 392.066 184.986C392.177 184.988 392.283 185.033 392.361 185.112Z" fill="#263238"/>
<path d="M385.864 180.782C385.827 180.822 385.782 180.853 385.732 180.874C385.682 180.896 385.628 180.907 385.573 180.907C385.519 180.907 385.465 180.896 385.415 180.874C385.365 180.853 385.32 180.822 385.283 180.782L384.373 179.99C384.333 179.953 384.302 179.908 384.28 179.858C384.259 179.808 384.248 179.754 384.248 179.7C384.248 179.646 384.259 179.592 384.28 179.542C384.302 179.492 384.333 179.447 384.373 179.41C384.41 179.37 384.455 179.339 384.505 179.318C384.555 179.296 384.609 179.285 384.664 179.285C384.718 179.285 384.772 179.296 384.822 179.318C384.872 179.339 384.917 179.37 384.955 179.41L385.875 180.202C385.948 180.281 385.988 180.386 385.986 180.494C385.984 180.602 385.94 180.705 385.864 180.782Z" fill="#263238"/>
<path d="M383.632 180.212C383.557 180.132 383.515 180.026 383.515 179.916C383.515 179.807 383.557 179.701 383.632 179.621L384.426 178.713C384.505 178.635 384.611 178.592 384.722 178.592C384.833 178.592 384.939 178.635 385.018 178.713C385.093 178.793 385.135 178.899 385.135 179.008C385.135 179.118 385.093 179.224 385.018 179.304L384.225 180.212C384.144 180.287 384.038 180.329 383.928 180.329C383.818 180.329 383.712 180.287 383.632 180.212Z" fill="#263238"/>
<path d="M390.551 182.461C390.546 182.362 390.579 182.265 390.644 182.19C390.709 182.115 390.801 182.068 390.901 182.06L391.959 181.986C392.058 181.98 392.156 182.014 392.231 182.079C392.306 182.144 392.353 182.236 392.361 182.335C392.364 182.433 392.33 182.529 392.265 182.604C392.2 182.678 392.11 182.725 392.012 182.736L390.953 182.81C390.854 182.816 390.756 182.783 390.681 182.717C390.606 182.652 390.56 182.56 390.551 182.461Z" fill="#263238"/>
<path d="M392.318 181.416C392.417 181.413 392.513 181.447 392.588 181.512C392.662 181.576 392.71 181.667 392.72 181.765L392.794 182.82C392.798 182.919 392.763 183.015 392.699 183.09C392.634 183.164 392.543 183.211 392.445 183.222C392.346 183.228 392.248 183.194 392.173 183.129C392.098 183.064 392.051 182.972 392.043 182.873L391.969 181.817C391.963 181.718 391.997 181.621 392.062 181.546C392.127 181.471 392.219 181.424 392.318 181.416Z" fill="#263238"/>
<path d="M385.462 182.81C385.468 182.86 385.464 182.91 385.449 182.958C385.434 183.006 385.409 183.05 385.377 183.088C385.344 183.125 385.303 183.156 385.258 183.177C385.213 183.199 385.163 183.21 385.113 183.211L384.055 183.285C383.956 183.291 383.858 183.258 383.783 183.193C383.708 183.128 383.661 183.036 383.653 182.937C383.65 182.838 383.684 182.742 383.749 182.668C383.813 182.593 383.904 182.546 384.002 182.535L385.06 182.461C385.11 182.457 385.16 182.463 385.207 182.478C385.254 182.493 385.298 182.518 385.335 182.551C385.373 182.583 385.403 182.623 385.425 182.667C385.447 182.712 385.46 182.76 385.462 182.81Z" fill="#263238"/>
<path d="M383.695 183.855C383.597 183.859 383.501 183.824 383.426 183.76C383.351 183.695 383.304 183.605 383.293 183.507L383.219 182.451C383.217 182.402 383.223 182.354 383.239 182.308C383.255 182.262 383.28 182.219 383.313 182.183C383.345 182.147 383.384 182.117 383.428 182.096C383.472 182.075 383.52 182.063 383.569 182.06C383.618 182.054 383.669 182.059 383.717 182.074C383.765 182.088 383.809 182.113 383.847 182.146C383.885 182.178 383.915 182.219 383.937 182.264C383.958 182.309 383.969 182.359 383.971 182.409L384.045 183.465C384.048 183.562 384.013 183.657 383.948 183.73C383.883 183.802 383.793 183.847 383.695 183.855Z" fill="#263238"/>
<path d="M388.181 185.175C388.231 185.169 388.282 185.174 388.33 185.189C388.377 185.203 388.422 185.228 388.46 185.261C388.497 185.294 388.528 185.334 388.549 185.379C388.571 185.425 388.582 185.474 388.583 185.524L388.657 186.58C388.662 186.629 388.656 186.679 388.641 186.726C388.625 186.773 388.601 186.817 388.568 186.854C388.536 186.892 388.496 186.922 388.451 186.944C388.407 186.966 388.358 186.978 388.308 186.981C388.21 186.984 388.113 186.95 388.039 186.886C387.964 186.821 387.917 186.731 387.906 186.633L387.832 185.577C387.826 185.477 387.86 185.38 387.925 185.305C387.99 185.23 388.082 185.183 388.181 185.175Z" fill="#263238"/>
<path d="M389.229 186.939C389.232 187.037 389.198 187.133 389.133 187.208C389.068 187.282 388.978 187.33 388.88 187.34L387.822 187.414C387.773 187.417 387.724 187.41 387.678 187.394C387.632 187.378 387.59 187.353 387.553 187.321C387.517 187.289 387.488 187.249 387.466 187.206C387.445 187.162 387.433 187.114 387.43 187.066C387.424 187.016 387.429 186.966 387.444 186.918C387.458 186.87 387.483 186.826 387.516 186.788C387.549 186.75 387.589 186.72 387.635 186.698C387.68 186.677 387.729 186.665 387.779 186.664L388.837 186.59C388.935 186.587 389.03 186.622 389.103 186.687C389.176 186.752 389.221 186.842 389.229 186.939Z" fill="#263238"/>
<path d="M387.864 180.096C387.814 180.102 387.764 180.097 387.716 180.083C387.668 180.068 387.624 180.043 387.586 180.011C387.548 179.978 387.517 179.937 387.496 179.892C387.475 179.847 387.463 179.798 387.462 179.748L387.388 178.692C387.385 178.593 387.419 178.497 387.484 178.423C387.548 178.348 387.639 178.301 387.737 178.29C387.836 178.287 387.932 178.321 388.007 178.386C388.081 178.45 388.128 178.541 388.139 178.639L388.213 179.695C388.217 179.744 388.212 179.794 388.196 179.841C388.181 179.888 388.156 179.932 388.124 179.969C388.091 180.007 388.052 180.037 388.007 180.059C387.962 180.081 387.914 180.093 387.864 180.096Z" fill="#263238"/>
<path d="M386.806 178.332C386.803 178.234 386.837 178.138 386.902 178.063C386.966 177.989 387.057 177.942 387.155 177.931L388.213 177.857C388.262 177.854 388.31 177.861 388.356 177.877C388.402 177.893 388.445 177.918 388.481 177.95C388.518 177.983 388.547 178.022 388.568 178.066C388.59 178.11 388.602 178.157 388.604 178.206C388.61 178.255 388.606 178.304 388.592 178.351C388.578 178.398 388.554 178.442 388.522 178.48C388.491 178.517 388.452 178.548 388.407 178.57C388.363 178.592 388.315 178.605 388.266 178.607L387.208 178.681C387.109 178.687 387.011 178.654 386.936 178.589C386.861 178.523 386.814 178.431 386.806 178.332Z" fill="#263238"/>
<path d="M284.476 201.295C290.107 200.906 294.356 196.034 293.966 190.414C293.576 184.793 288.695 180.552 283.064 180.941C277.433 181.331 273.184 186.202 273.574 191.823C273.964 197.443 278.845 201.684 284.476 201.295Z" fill="#263238"/>
<path d="M288.698 185.45C288.583 185.359 288.489 185.244 288.421 185.115C288.353 184.985 288.313 184.843 288.303 184.697C288.293 184.551 288.314 184.405 288.363 184.267C288.413 184.129 288.491 184.004 288.592 183.898L290.708 181.479C290.903 181.261 291.176 181.127 291.469 181.108C291.762 181.088 292.051 181.183 292.274 181.374C292.493 181.569 292.626 181.841 292.646 182.134C292.666 182.426 292.57 182.714 292.379 182.937L290.263 185.344C290.172 185.46 290.057 185.556 289.926 185.625C289.795 185.693 289.652 185.734 289.504 185.744C289.357 185.754 289.209 185.733 289.07 185.682C288.931 185.632 288.804 185.552 288.698 185.45Z" fill="#263238"/>
<path d="M290.211 179.6C290.302 179.485 290.416 179.391 290.546 179.324C290.676 179.256 290.819 179.216 290.965 179.206C291.111 179.196 291.258 179.216 291.396 179.266C291.534 179.316 291.66 179.393 291.766 179.494L294.178 181.606C294.293 181.697 294.388 181.81 294.457 181.939C294.526 182.069 294.567 182.211 294.578 182.357C294.589 182.503 294.57 182.649 294.521 182.787C294.472 182.925 294.395 183.052 294.294 183.158C294.203 183.274 294.088 183.37 293.957 183.439C293.826 183.507 293.683 183.548 293.535 183.558C293.388 183.568 293.24 183.547 293.101 183.496C292.962 183.446 292.835 183.367 292.729 183.264L290.316 181.152C290.101 180.957 289.969 180.687 289.949 180.397C289.929 180.108 290.023 179.822 290.211 179.6Z" fill="#263238"/>
<path d="M278.826 196.728C279.047 196.921 279.183 197.194 279.204 197.486C279.226 197.778 279.132 198.067 278.943 198.291L276.827 200.699C276.632 200.917 276.358 201.051 276.066 201.07C275.773 201.09 275.484 200.995 275.261 200.804C275.043 200.611 274.909 200.34 274.89 200.05C274.87 199.759 274.965 199.473 275.155 199.252L277.271 196.834C277.363 196.719 277.477 196.625 277.607 196.558C277.737 196.49 277.879 196.45 278.026 196.44C278.172 196.43 278.319 196.45 278.456 196.5C278.594 196.55 278.72 196.627 278.826 196.728Z" fill="#263238"/>
<path d="M277.314 202.61C277.222 202.724 277.108 202.818 276.978 202.886C276.848 202.954 276.705 202.994 276.559 203.004C276.413 203.014 276.266 202.993 276.128 202.944C275.991 202.894 275.864 202.816 275.758 202.716L273.346 200.604C273.231 200.513 273.136 200.399 273.067 200.27C272.998 200.141 272.957 199.999 272.946 199.853C272.935 199.707 272.954 199.56 273.003 199.422C273.052 199.284 273.129 199.158 273.23 199.051C273.425 198.833 273.698 198.699 273.991 198.679C274.284 198.66 274.573 198.755 274.795 198.946L277.208 201.058C277.322 201.149 277.416 201.263 277.484 201.393C277.552 201.522 277.592 201.665 277.602 201.811C277.612 201.956 277.592 202.103 277.542 202.241C277.492 202.378 277.415 202.504 277.314 202.61Z" fill="#263238"/>
<path d="M289.47 196.031C289.561 195.917 289.676 195.823 289.806 195.755C289.936 195.687 290.078 195.647 290.224 195.637C290.371 195.627 290.517 195.648 290.655 195.697C290.793 195.747 290.919 195.825 291.025 195.925L293.448 198.037C293.667 198.232 293.801 198.505 293.82 198.797C293.84 199.09 293.745 199.378 293.554 199.6C293.462 199.715 293.348 199.809 293.218 199.876C293.088 199.944 292.946 199.984 292.799 199.994C292.653 200.004 292.507 199.984 292.369 199.934C292.231 199.884 292.105 199.807 291.999 199.706L289.576 197.594C289.46 197.503 289.364 197.388 289.295 197.257C289.226 197.127 289.185 196.983 289.175 196.836C289.165 196.689 289.186 196.541 289.237 196.402C289.288 196.264 289.367 196.137 289.47 196.031Z" fill="#263238"/>
<path d="M295.289 197.541C295.404 197.633 295.498 197.747 295.566 197.876C295.634 198.006 295.674 198.148 295.684 198.294C295.694 198.44 295.673 198.586 295.623 198.724C295.574 198.862 295.496 198.987 295.395 199.093L293.279 201.512C293.085 201.73 292.814 201.863 292.523 201.882C292.232 201.902 291.945 201.807 291.724 201.617C291.505 201.422 291.371 201.15 291.351 200.857C291.331 200.565 291.427 200.277 291.618 200.054L293.734 197.647C293.825 197.532 293.94 197.438 294.07 197.371C294.199 197.303 294.342 197.263 294.488 197.253C294.634 197.243 294.781 197.263 294.919 197.313C295.057 197.363 295.183 197.44 295.289 197.541Z" fill="#263238"/>
<path d="M278.096 186.168C278.006 186.283 277.892 186.378 277.762 186.447C277.633 186.515 277.491 186.557 277.344 186.567C277.198 186.578 277.051 186.559 276.913 186.51C276.775 186.461 276.648 186.384 276.541 186.284L274.118 184.172C274.004 184.081 273.91 183.967 273.842 183.837C273.774 183.707 273.734 183.565 273.724 183.419C273.714 183.273 273.734 183.127 273.784 182.989C273.834 182.852 273.911 182.726 274.012 182.62C274.103 182.505 274.217 182.41 274.346 182.341C274.476 182.272 274.618 182.231 274.765 182.22C274.911 182.209 275.058 182.229 275.196 182.278C275.334 182.327 275.461 182.403 275.568 182.504L277.991 184.616C278.105 184.707 278.199 184.821 278.267 184.951C278.335 185.08 278.375 185.223 278.385 185.369C278.395 185.515 278.375 185.661 278.325 185.799C278.275 185.936 278.197 186.062 278.096 186.168Z" fill="#263238"/>
<path d="M272.235 184.679C272.016 184.484 271.882 184.211 271.863 183.919C271.843 183.627 271.939 183.339 272.129 183.116L274.245 180.708C274.337 180.594 274.451 180.5 274.581 180.432C274.711 180.365 274.853 180.325 275 180.315C275.146 180.305 275.293 180.325 275.43 180.375C275.568 180.424 275.694 180.502 275.801 180.603C275.915 180.694 276.009 180.808 276.077 180.938C276.145 181.068 276.185 181.21 276.195 181.356C276.205 181.502 276.185 181.648 276.135 181.786C276.085 181.923 276.007 182.049 275.906 182.155L273.79 184.563C273.7 184.678 273.586 184.773 273.456 184.842C273.327 184.91 273.185 184.951 273.038 184.962C272.892 184.973 272.745 184.954 272.607 184.905C272.469 184.856 272.342 184.779 272.235 184.679Z" fill="#263238"/>
<path d="M290.528 190.645C290.518 190.516 290.534 190.385 290.575 190.261C290.616 190.138 290.681 190.023 290.767 189.925C290.852 189.827 290.957 189.746 291.074 189.689C291.191 189.631 291.318 189.597 291.449 189.589L294.316 189.389C294.446 189.379 294.577 189.395 294.701 189.436C294.825 189.476 294.939 189.542 295.037 189.627C295.136 189.713 295.216 189.817 295.274 189.934C295.332 190.05 295.366 190.177 295.374 190.308C295.391 190.569 295.304 190.827 295.132 191.025C294.959 191.223 294.715 191.345 294.453 191.364L291.586 191.564C291.324 191.582 291.065 191.495 290.867 191.323C290.669 191.15 290.547 190.907 290.528 190.645Z" fill="#263238"/>
<path d="M295.173 187.889C295.303 187.879 295.434 187.895 295.558 187.936C295.681 187.977 295.796 188.042 295.894 188.128C295.993 188.213 296.073 188.317 296.131 188.434C296.189 188.551 296.223 188.678 296.231 188.808L296.432 191.67C296.442 191.8 296.426 191.93 296.385 192.054C296.344 192.178 296.279 192.292 296.193 192.39C296.107 192.488 296.003 192.569 295.886 192.626C295.769 192.684 295.641 192.718 295.511 192.726C295.253 192.728 295.003 192.636 294.808 192.466C294.613 192.297 294.487 192.063 294.453 191.807L294.252 188.945C294.235 188.684 294.322 188.426 294.494 188.228C294.667 188.03 294.911 187.908 295.173 187.889Z" fill="#263238"/>
<path d="M277.028 191.575C277.045 191.836 276.958 192.094 276.786 192.292C276.614 192.49 276.37 192.612 276.108 192.631L273.24 192.831C273.11 192.84 272.979 192.823 272.855 192.781C272.731 192.739 272.616 192.672 272.518 192.586C272.42 192.5 272.339 192.395 272.282 192.277C272.224 192.16 272.19 192.033 272.182 191.902C272.165 191.64 272.252 191.382 272.424 191.185C272.597 190.987 272.841 190.865 273.103 190.846L275.97 190.656C276.1 190.646 276.231 190.662 276.355 190.703C276.479 190.744 276.593 190.809 276.692 190.894C276.79 190.98 276.871 191.084 276.928 191.201C276.986 191.318 277.02 191.445 277.028 191.575Z" fill="#263238"/>
<path d="M272.352 194.331C272.089 194.348 271.831 194.261 271.633 194.089C271.434 193.917 271.313 193.674 271.294 193.412L271.093 190.54C271.075 190.278 271.162 190.02 271.335 189.822C271.507 189.624 271.751 189.503 272.013 189.484C272.271 189.482 272.521 189.574 272.716 189.743C272.911 189.912 273.037 190.147 273.071 190.403L273.272 193.275C273.274 193.533 273.182 193.782 273.012 193.977C272.843 194.172 272.608 194.297 272.352 194.331Z" fill="#263238"/>
<path d="M284.233 197.784C284.491 197.782 284.741 197.874 284.936 198.043C285.131 198.213 285.257 198.447 285.291 198.703L285.481 201.564C285.491 201.694 285.476 201.825 285.435 201.949C285.394 202.072 285.328 202.187 285.243 202.285C285.157 202.383 285.053 202.463 284.936 202.521C284.819 202.579 284.691 202.612 284.561 202.62C284.299 202.638 284.04 202.551 283.842 202.379C283.644 202.207 283.522 201.963 283.503 201.702L283.313 198.84C283.295 198.578 283.382 198.32 283.555 198.123C283.727 197.925 283.971 197.803 284.233 197.784Z" fill="#263238"/>
<path d="M286.994 202.504C286.996 202.762 286.904 203.012 286.734 203.206C286.565 203.401 286.33 203.527 286.074 203.56L283.196 203.75C282.934 203.768 282.675 203.681 282.477 203.509C282.279 203.337 282.157 203.093 282.138 202.832C282.136 202.574 282.228 202.324 282.398 202.13C282.567 201.935 282.802 201.809 283.058 201.776L285.936 201.575C286.196 201.573 286.448 201.667 286.643 201.838C286.838 202.01 286.963 202.247 286.994 202.504Z" fill="#263238"/>
<path d="M283.291 184.383C283.029 184.401 282.771 184.314 282.573 184.142C282.374 183.97 282.252 183.726 282.233 183.465L282.043 180.603C282.033 180.473 282.049 180.342 282.09 180.219C282.131 180.095 282.196 179.981 282.282 179.883C282.367 179.784 282.472 179.704 282.589 179.646C282.706 179.589 282.833 179.555 282.963 179.547C283.222 179.545 283.472 179.637 283.667 179.806C283.862 179.975 283.988 180.21 284.021 180.466L284.222 183.327C284.231 183.458 284.214 183.589 284.172 183.712C284.129 183.836 284.063 183.95 283.977 184.048C283.89 184.147 283.785 184.227 283.668 184.284C283.55 184.342 283.422 184.375 283.291 184.383Z" fill="#263238"/>
<path d="M280.53 179.716C280.521 179.585 280.539 179.455 280.581 179.331C280.623 179.207 280.689 179.093 280.776 178.995C280.862 178.897 280.967 178.817 281.085 178.759C281.203 178.702 281.33 178.668 281.461 178.66L284.328 178.459C284.587 178.457 284.837 178.549 285.032 178.718C285.226 178.888 285.353 179.122 285.386 179.378C285.404 179.64 285.317 179.898 285.144 180.095C284.972 180.293 284.728 180.415 284.466 180.434L281.599 180.635C281.338 180.639 281.086 180.548 280.889 180.379C280.691 180.209 280.564 179.973 280.53 179.716Z" fill="#263238"/>
<path d="M325.442 153.432C326.589 154.694 327.335 156.268 327.586 157.953C327.837 159.639 327.582 161.361 326.852 162.901C326.123 164.442 324.952 165.733 323.489 166.609C322.025 167.486 320.333 167.91 318.628 167.827C316.923 167.745 315.28 167.159 313.908 166.145C312.536 165.131 311.496 163.733 310.92 162.129C310.344 160.525 310.257 158.787 310.67 157.133C311.084 155.48 311.979 153.986 313.243 152.841C314.083 152.08 315.065 151.491 316.132 151.109C317.2 150.727 318.333 150.559 319.465 150.614C320.598 150.668 321.709 150.946 322.735 151.429C323.76 151.913 324.68 152.593 325.442 153.432Z" fill="#263238"/>
<path d="M314.767 154.488C314.582 154.653 314.34 154.739 314.092 154.728C313.845 154.716 313.612 154.607 313.444 154.425L310.63 151.373C310.464 151.189 310.378 150.947 310.39 150.7C310.402 150.453 310.511 150.22 310.693 150.053C310.783 149.97 310.889 149.906 311.004 149.864C311.118 149.822 311.241 149.804 311.363 149.81C311.485 149.816 311.605 149.846 311.715 149.898C311.825 149.951 311.924 150.025 312.005 150.116L314.862 153.168C315.021 153.357 315.1 153.601 315.082 153.847C315.065 154.094 314.951 154.323 314.767 154.488Z" fill="#263238"/>
<path d="M309.043 151.584C308.96 151.494 308.896 151.389 308.854 151.274C308.812 151.16 308.794 151.038 308.799 150.916C308.805 150.794 308.836 150.675 308.888 150.564C308.941 150.454 309.015 150.356 309.106 150.275L311.106 148.458C311.29 148.293 311.533 148.207 311.78 148.219C312.028 148.231 312.261 148.339 312.428 148.522C312.593 148.704 312.679 148.944 312.668 149.189C312.656 149.435 312.547 149.665 312.365 149.831L310.355 151.647C310.265 151.73 310.16 151.794 310.045 151.836C309.93 151.878 309.808 151.896 309.686 151.89C309.563 151.884 309.444 151.854 309.333 151.802C309.223 151.749 309.124 151.675 309.043 151.584Z" fill="#263238"/>
<path d="M323.326 163.876C323.416 163.793 323.521 163.729 323.636 163.687C323.751 163.645 323.873 163.627 323.995 163.633C324.117 163.639 324.237 163.669 324.348 163.721C324.458 163.774 324.557 163.848 324.638 163.939L327.093 166.632C327.258 166.814 327.343 167.054 327.332 167.3C327.32 167.545 327.211 167.776 327.029 167.941C326.845 168.107 326.602 168.193 326.355 168.181C326.107 168.169 325.874 168.06 325.707 167.878L323.263 165.185C323.18 165.096 323.115 164.99 323.074 164.876C323.032 164.761 323.013 164.639 323.019 164.517C323.025 164.395 323.055 164.276 323.108 164.166C323.161 164.056 323.235 163.957 323.326 163.876Z" fill="#263238"/>
<path d="M328.69 166.41C328.856 166.594 328.942 166.836 328.93 167.083C328.918 167.33 328.809 167.563 328.627 167.73L326.616 169.547C326.432 169.712 326.19 169.798 325.942 169.786C325.694 169.774 325.462 169.665 325.294 169.483C325.132 169.297 325.049 169.055 325.063 168.808C325.077 168.562 325.186 168.331 325.368 168.163L327.368 166.347C327.552 166.182 327.794 166.096 328.042 166.107C328.289 166.119 328.522 166.228 328.69 166.41Z" fill="#263238"/>
<path d="M323.728 154.921C323.562 154.737 323.476 154.495 323.488 154.248C323.5 154.001 323.609 153.768 323.792 153.601L325.802 151.795C325.892 151.712 325.997 151.648 326.112 151.606C326.227 151.565 326.349 151.546 326.471 151.552C326.593 151.558 326.713 151.588 326.823 151.641C326.934 151.693 327.032 151.767 327.114 151.859C327.197 151.948 327.261 152.053 327.303 152.168C327.345 152.283 327.363 152.405 327.357 152.527C327.351 152.648 327.321 152.768 327.268 152.878C327.216 152.988 327.141 153.087 327.05 153.168L325.051 154.984C324.866 155.15 324.624 155.236 324.376 155.224C324.129 155.212 323.896 155.103 323.728 154.921Z" fill="#263238"/>
<path d="M325.58 150.158C325.767 149.997 326.009 149.914 326.256 149.928C326.503 149.942 326.734 150.051 326.902 150.232L328.722 152.228C328.887 152.412 328.974 152.654 328.962 152.901C328.95 153.148 328.841 153.381 328.658 153.548C328.474 153.713 328.232 153.8 327.984 153.788C327.737 153.776 327.504 153.667 327.336 153.485L325.516 151.478C325.351 151.294 325.264 151.053 325.276 150.805C325.288 150.558 325.397 150.326 325.58 150.158Z" fill="#263238"/>
<path d="M314.322 163.432C314.488 163.616 314.574 163.858 314.562 164.105C314.551 164.352 314.441 164.585 314.259 164.752L312.259 166.569C312.075 166.734 311.833 166.82 311.585 166.808C311.337 166.796 311.105 166.687 310.937 166.505C310.771 166.321 310.685 166.079 310.697 165.832C310.709 165.585 310.818 165.353 311 165.185L313.011 163.369C313.193 163.204 313.434 163.119 313.68 163.13C313.925 163.142 314.157 163.251 314.322 163.432Z" fill="#263238"/>
<path d="M312.471 168.216C312.381 168.299 312.276 168.363 312.161 168.405C312.046 168.446 311.924 168.465 311.802 168.459C311.68 168.453 311.56 168.423 311.449 168.37C311.339 168.318 311.24 168.244 311.159 168.153L309.339 166.146C309.256 166.057 309.192 165.951 309.15 165.837C309.108 165.722 309.09 165.6 309.096 165.478C309.102 165.356 309.132 165.237 309.185 165.127C309.237 165.017 309.311 164.918 309.403 164.837C309.493 164.754 309.598 164.69 309.713 164.648C309.828 164.606 309.95 164.588 310.072 164.594C310.194 164.6 310.314 164.63 310.424 164.682C310.535 164.735 310.633 164.809 310.715 164.9L312.534 166.896C312.7 167.08 312.786 167.322 312.774 167.569C312.762 167.816 312.653 168.049 312.471 168.216Z" fill="#263238"/>
<path d="M319.306 153.495C319.196 153.49 319.088 153.463 318.989 153.416C318.889 153.369 318.8 153.303 318.727 153.221C318.653 153.14 318.596 153.045 318.559 152.942C318.522 152.838 318.506 152.728 318.512 152.619L318.734 148.089C318.738 147.978 318.764 147.87 318.811 147.769C318.857 147.669 318.923 147.579 319.005 147.504C319.087 147.429 319.183 147.372 319.287 147.334C319.391 147.297 319.502 147.28 319.612 147.286C319.833 147.3 320.04 147.399 320.188 147.563C320.336 147.727 320.415 147.942 320.406 148.163L320.184 152.703C320.17 152.924 320.071 153.13 319.906 153.278C319.742 153.426 319.527 153.504 319.306 153.495Z" fill="#263238"/>
<path d="M317.56 147.191C317.564 147.081 317.59 146.972 317.637 146.872C317.683 146.771 317.749 146.681 317.831 146.606C317.912 146.532 318.008 146.474 318.113 146.437C318.217 146.399 318.327 146.383 318.438 146.388L320.861 146.515C320.972 146.519 321.08 146.545 321.181 146.592C321.282 146.638 321.372 146.704 321.447 146.786C321.522 146.867 321.579 146.963 321.617 147.067C321.654 147.171 321.671 147.281 321.665 147.392C321.649 147.613 321.547 147.819 321.381 147.967C321.215 148.115 320.998 148.192 320.776 148.184L318.353 148.068C318.244 148.062 318.136 148.035 318.037 147.988C317.937 147.941 317.848 147.875 317.775 147.794C317.701 147.712 317.644 147.617 317.607 147.514C317.57 147.41 317.554 147.301 317.56 147.191Z" fill="#263238"/>
<path d="M318.745 164.868C318.856 164.873 318.964 164.899 319.065 164.945C319.165 164.991 319.256 165.057 319.331 165.139C319.405 165.22 319.463 165.316 319.501 165.42C319.538 165.524 319.555 165.635 319.549 165.745L319.433 168.163C319.419 168.384 319.32 168.592 319.156 168.742C318.992 168.891 318.776 168.972 318.554 168.966C318.333 168.952 318.125 168.853 317.975 168.69C317.825 168.526 317.744 168.311 317.75 168.089L317.867 165.66C317.88 165.44 317.98 165.234 318.144 165.086C318.308 164.938 318.524 164.86 318.745 164.868Z" fill="#263238"/>
<path d="M320.607 169.061C320.593 169.283 320.492 169.491 320.326 169.639C320.159 169.788 319.941 169.864 319.718 169.853L317.295 169.737C317.185 169.733 317.077 169.707 316.977 169.66C316.877 169.614 316.787 169.547 316.713 169.466C316.639 169.384 316.582 169.288 316.546 169.184C316.51 169.08 316.495 168.97 316.502 168.86C316.507 168.751 316.534 168.643 316.582 168.544C316.629 168.445 316.695 168.356 316.776 168.282C316.858 168.209 316.953 168.152 317.057 168.115C317.16 168.078 317.27 168.062 317.38 168.068L319.803 168.184C319.914 168.188 320.022 168.214 320.123 168.261C320.224 168.307 320.314 168.373 320.389 168.455C320.464 168.536 320.521 168.632 320.559 168.736C320.596 168.84 320.613 168.95 320.607 169.061Z" fill="#263238"/>
<path d="M324.723 159.451C324.736 159.231 324.836 159.025 325 158.877C325.164 158.729 325.38 158.651 325.601 158.659L328.034 158.775C328.255 158.789 328.462 158.888 328.61 159.052C328.758 159.216 328.836 159.431 328.828 159.652C328.824 159.762 328.798 159.871 328.751 159.971C328.705 160.072 328.639 160.162 328.557 160.237C328.475 160.311 328.379 160.369 328.275 160.406C328.171 160.444 328.06 160.46 327.949 160.454L325.516 160.338C325.294 160.322 325.088 160.22 324.94 160.055C324.792 159.889 324.714 159.673 324.723 159.451Z" fill="#263238"/>
<path d="M328.923 157.656C329.145 157.67 329.352 157.769 329.502 157.932C329.652 158.096 329.733 158.311 329.727 158.532L329.611 160.961C329.597 161.182 329.497 161.388 329.333 161.536C329.169 161.684 328.953 161.762 328.732 161.753C328.622 161.749 328.513 161.723 328.412 161.677C328.312 161.63 328.221 161.565 328.147 161.483C328.072 161.401 328.014 161.306 327.977 161.202C327.939 161.098 327.923 160.987 327.928 160.877L328.045 158.459C328.058 158.237 328.158 158.03 328.321 157.88C328.485 157.731 328.701 157.65 328.923 157.656Z" fill="#263238"/>
<path d="M313.328 158.902C313.322 159.012 313.295 159.119 313.248 159.218C313.201 159.317 313.135 159.406 313.053 159.48C312.972 159.554 312.877 159.61 312.773 159.647C312.669 159.684 312.559 159.7 312.45 159.694L310.027 159.578C309.916 159.574 309.807 159.548 309.707 159.501C309.606 159.455 309.516 159.389 309.441 159.308C309.366 159.226 309.308 159.13 309.271 159.026C309.233 158.922 309.217 158.812 309.223 158.701C309.236 158.481 309.336 158.275 309.5 158.127C309.664 157.979 309.88 157.901 310.101 157.909L312.534 158.026C312.644 158.031 312.752 158.058 312.851 158.105C312.95 158.152 313.04 158.218 313.113 158.3C313.187 158.381 313.244 158.476 313.281 158.579C313.318 158.683 313.334 158.793 313.328 158.902Z" fill="#263238"/>
<path d="M309.128 160.75C309.017 160.746 308.909 160.72 308.809 160.674C308.709 160.627 308.619 160.561 308.545 160.479C308.471 160.397 308.415 160.302 308.378 160.198C308.342 160.094 308.327 159.984 308.334 159.874L308.451 157.445C308.456 157.335 308.483 157.228 308.53 157.129C308.577 157.029 308.643 156.941 308.725 156.867C308.807 156.793 308.902 156.737 309.006 156.7C309.109 156.663 309.219 156.647 309.329 156.653C309.55 156.666 309.756 156.766 309.905 156.93C310.053 157.093 310.131 157.309 310.122 157.529L310.006 159.958C309.992 160.178 309.893 160.385 309.729 160.533C309.564 160.681 309.349 160.759 309.128 160.75Z" fill="#263238"/>
<path d="M364.267 204.391C365.965 198.799 362.799 192.891 357.196 191.196C351.593 189.501 345.674 192.661 343.976 198.254C342.278 203.846 345.444 209.754 351.047 211.449C356.65 213.144 362.569 209.984 364.267 204.391Z" fill="#263238"/>
<path d="M346.338 202.008C346.351 202.159 346.334 202.312 346.287 202.456C346.241 202.601 346.167 202.735 346.068 202.851C345.97 202.967 345.85 203.062 345.714 203.131C345.579 203.2 345.431 203.242 345.28 203.254L340.233 203.719C339.927 203.742 339.625 203.644 339.391 203.447C339.158 203.249 339.011 202.967 338.984 202.663C338.971 202.511 338.989 202.359 339.035 202.214C339.081 202.07 339.155 201.936 339.254 201.82C339.352 201.704 339.472 201.609 339.608 201.54C339.743 201.47 339.891 201.429 340.042 201.417L345.1 200.952C345.251 200.939 345.403 200.956 345.547 201.002C345.691 201.049 345.825 201.123 345.94 201.221C346.055 201.32 346.15 201.44 346.218 201.575C346.286 201.71 346.327 201.857 346.338 202.008Z" fill="#263238"/>
<path d="M339.27 205.482C339.118 205.495 338.966 205.478 338.821 205.432C338.676 205.386 338.542 205.312 338.426 205.214C338.309 205.115 338.214 204.995 338.145 204.86C338.075 204.725 338.034 204.578 338.022 204.426L337.715 201.121C337.702 200.97 337.719 200.817 337.765 200.673C337.811 200.528 337.886 200.394 337.984 200.278C338.082 200.162 338.203 200.067 338.338 199.998C338.473 199.929 338.621 199.887 338.773 199.875C339.078 199.851 339.381 199.949 339.614 200.147C339.848 200.345 339.994 200.626 340.021 200.931L340.317 204.236C340.333 204.387 340.319 204.54 340.274 204.685C340.23 204.83 340.157 204.965 340.059 205.081C339.961 205.198 339.841 205.293 339.705 205.362C339.57 205.431 339.422 205.472 339.27 205.482Z" fill="#263238"/>
<path d="M361.869 200.593C361.856 200.442 361.873 200.289 361.919 200.145C361.965 200 362.04 199.866 362.138 199.75C362.237 199.634 362.357 199.539 362.492 199.47C362.628 199.401 362.775 199.359 362.927 199.347L367.381 198.946C367.532 198.931 367.685 198.947 367.83 198.993C367.975 199.039 368.109 199.113 368.225 199.211C368.34 199.31 368.435 199.431 368.502 199.567C368.57 199.702 368.61 199.85 368.619 200.002C368.634 200.153 368.617 200.305 368.572 200.45C368.526 200.594 368.451 200.728 368.353 200.843C368.254 200.959 368.133 201.053 367.997 201.121C367.861 201.188 367.713 201.228 367.561 201.237L363.107 201.649C362.956 201.662 362.804 201.645 362.66 201.599C362.515 201.552 362.382 201.478 362.266 201.38C362.151 201.281 362.057 201.161 361.989 201.026C361.92 200.891 361.88 200.744 361.869 200.593Z" fill="#263238"/>
<path d="M368.344 197.182C368.495 197.169 368.648 197.186 368.793 197.232C368.938 197.278 369.072 197.353 369.188 197.451C369.304 197.549 369.4 197.669 369.469 197.804C369.538 197.939 369.58 198.087 369.592 198.238L369.899 201.543C369.923 201.848 369.825 202.15 369.627 202.383C369.429 202.617 369.146 202.763 368.841 202.789C368.69 202.802 368.537 202.785 368.392 202.739C368.247 202.693 368.113 202.619 367.997 202.521C367.881 202.423 367.785 202.303 367.716 202.167C367.647 202.032 367.605 201.885 367.593 201.733L367.286 198.428C367.262 198.123 367.36 197.821 367.558 197.588C367.757 197.355 368.039 197.209 368.344 197.182Z" fill="#263238"/>
<path d="M353.394 193.56C353.243 193.573 353.09 193.556 352.945 193.51C352.8 193.464 352.666 193.389 352.55 193.291C352.434 193.193 352.338 193.073 352.269 192.938C352.2 192.803 352.158 192.655 352.146 192.504L351.839 189.199C351.816 188.894 351.914 188.592 352.112 188.359C352.31 188.125 352.592 187.98 352.897 187.953C353.049 187.94 353.201 187.957 353.346 188.003C353.491 188.049 353.625 188.123 353.741 188.221C353.858 188.319 353.953 188.44 354.022 188.575C354.092 188.71 354.134 188.857 354.146 189.009L354.452 192.314C354.476 192.619 354.378 192.921 354.18 193.154C353.982 193.387 353.7 193.533 353.394 193.56Z" fill="#263238"/>
<path d="M350.083 188.28C350.068 188.129 350.084 187.977 350.13 187.832C350.176 187.687 350.25 187.553 350.349 187.438C350.448 187.323 350.569 187.229 350.705 187.161C350.841 187.093 350.989 187.054 351.141 187.044L354.452 186.738C354.604 186.724 354.756 186.74 354.901 186.786C355.046 186.831 355.18 186.906 355.296 187.004C355.411 187.103 355.506 187.223 355.573 187.359C355.641 187.495 355.681 187.643 355.69 187.794C355.705 187.946 355.689 188.099 355.643 188.244C355.597 188.389 355.523 188.524 355.424 188.64C355.326 188.756 355.205 188.851 355.069 188.92C354.933 188.989 354.784 189.03 354.632 189.04L351.321 189.336C351.169 189.35 351.017 189.334 350.872 189.289C350.727 189.243 350.593 189.169 350.477 189.07C350.362 188.972 350.267 188.851 350.199 188.715C350.132 188.579 350.092 188.431 350.083 188.28Z" fill="#263238"/>
<path d="M354.823 209.052C354.974 209.039 355.126 209.056 355.27 209.102C355.414 209.148 355.548 209.223 355.663 209.321C355.778 209.419 355.873 209.539 355.941 209.674C356.009 209.809 356.05 209.957 356.061 210.108L356.367 213.413C356.38 213.564 356.363 213.716 356.317 213.861C356.271 214.006 356.197 214.14 356.098 214.256C356 214.371 355.88 214.467 355.744 214.536C355.609 214.605 355.461 214.647 355.309 214.659C355.004 214.682 354.702 214.585 354.468 214.387C354.234 214.189 354.088 213.907 354.061 213.603L353.765 210.298C353.752 210.146 353.769 209.994 353.815 209.849C353.861 209.705 353.936 209.571 354.034 209.455C354.132 209.339 354.253 209.244 354.388 209.175C354.523 209.105 354.671 209.063 354.823 209.052Z" fill="#263238"/>
<path d="M358.134 214.384C358.147 214.535 358.13 214.687 358.084 214.831C358.037 214.975 357.963 215.108 357.864 215.223C357.766 215.338 357.645 215.432 357.51 215.501C357.375 215.569 357.227 215.609 357.076 215.62L353.765 215.926C353.613 215.942 353.459 215.927 353.313 215.882C353.166 215.837 353.031 215.763 352.914 215.664C352.798 215.566 352.702 215.444 352.634 215.308C352.565 215.171 352.525 215.022 352.516 214.87C352.503 214.719 352.52 214.566 352.566 214.422C352.613 214.277 352.687 214.143 352.785 214.027C352.884 213.911 353.004 213.816 353.139 213.747C353.275 213.678 353.423 213.636 353.574 213.624L356.886 213.328C357.037 213.315 357.19 213.332 357.335 213.378C357.48 213.425 357.614 213.499 357.73 213.597C357.846 213.695 357.942 213.815 358.011 213.95C358.08 214.086 358.122 214.233 358.134 214.384Z" fill="#263238"/>
<path d="M348.718 196.834C348.54 197.037 348.29 197.165 348.021 197.191C347.751 197.216 347.482 197.138 347.269 196.971L342.973 193.402C342.771 193.222 342.645 192.973 342.621 192.703C342.597 192.434 342.678 192.166 342.846 191.955C343.026 191.753 343.276 191.627 343.546 191.603C343.815 191.58 344.084 191.66 344.296 191.828L348.591 195.387C348.794 195.566 348.92 195.816 348.943 196.085C348.967 196.354 348.886 196.622 348.718 196.834Z" fill="#263238"/>
<path d="M341.227 193.898C341.025 193.719 340.899 193.469 340.875 193.2C340.852 192.931 340.932 192.663 341.1 192.451L343.005 190.16C343.183 189.956 343.432 189.828 343.702 189.803C343.972 189.777 344.241 189.856 344.454 190.022C344.658 190.2 344.786 190.449 344.812 190.718C344.838 190.988 344.759 191.256 344.592 191.469L342.677 193.761C342.499 193.964 342.249 194.092 341.979 194.118C341.71 194.143 341.441 194.065 341.227 193.898Z" fill="#263238"/>
<path d="M359.488 205.778C359.666 205.574 359.916 205.446 360.186 205.421C360.455 205.395 360.725 205.474 360.938 205.641L363.234 207.552C363.438 207.73 363.566 207.979 363.591 208.248C363.617 208.517 363.538 208.786 363.371 208.999C363.192 209.201 362.941 209.327 362.672 209.35C362.402 209.374 362.134 209.293 361.922 209.125L359.626 207.225C359.422 207.047 359.294 206.798 359.268 206.529C359.243 206.26 359.321 205.991 359.488 205.778Z" fill="#263238"/>
<path d="M364.979 207.056C365.183 207.233 365.312 207.483 365.337 207.752C365.363 208.021 365.284 208.29 365.117 208.502L363.202 210.794C363.024 210.998 362.774 211.125 362.505 211.151C362.235 211.177 361.966 211.098 361.752 210.931C361.55 210.752 361.424 210.502 361.4 210.233C361.377 209.964 361.457 209.696 361.626 209.484L363.53 207.193C363.708 206.989 363.958 206.861 364.227 206.836C364.497 206.81 364.766 206.889 364.979 207.056Z" fill="#263238"/>
<path d="M358.579 195.936C358.376 195.757 358.25 195.507 358.226 195.238C358.203 194.969 358.283 194.701 358.452 194.489L360.356 192.198C360.534 191.994 360.784 191.866 361.053 191.841C361.323 191.815 361.592 191.894 361.806 192.061C362.01 192.238 362.138 192.487 362.163 192.756C362.189 193.026 362.11 193.294 361.943 193.507L360.028 195.799C359.85 196.002 359.6 196.13 359.331 196.156C359.061 196.181 358.792 196.103 358.579 195.936Z" fill="#263238"/>
<path d="M359.869 190.445C360.049 190.243 360.299 190.117 360.569 190.093C360.838 190.07 361.107 190.15 361.319 190.318L363.615 192.219C363.819 192.397 363.947 192.646 363.972 192.915C363.998 193.184 363.919 193.453 363.752 193.666C363.574 193.869 363.324 193.997 363.055 194.023C362.785 194.048 362.516 193.97 362.303 193.803L360.007 191.902C359.8 191.724 359.67 191.473 359.644 191.201C359.618 190.929 359.699 190.658 359.869 190.445Z" fill="#263238"/>
<path d="M349.628 206.676C349.83 206.855 349.957 207.105 349.98 207.374C350.004 207.643 349.923 207.911 349.755 208.122L347.851 210.414C347.672 210.618 347.423 210.745 347.153 210.771C346.884 210.796 346.614 210.718 346.401 210.551C346.197 210.373 346.069 210.124 346.043 209.855C346.018 209.586 346.097 209.317 346.264 209.104L348.178 206.813C348.357 206.609 348.606 206.481 348.876 206.456C349.145 206.43 349.415 206.509 349.628 206.676Z" fill="#263238"/>
<path d="M348.337 212.167C348.158 212.369 347.907 212.495 347.638 212.518C347.368 212.542 347.1 212.461 346.888 212.293L344.592 210.393C344.389 210.213 344.263 209.964 344.24 209.695C344.216 209.425 344.297 209.158 344.465 208.946C344.643 208.742 344.892 208.614 345.162 208.589C345.432 208.563 345.701 208.642 345.914 208.809L348.21 210.709C348.416 210.889 348.544 211.141 348.567 211.413C348.591 211.684 348.509 211.954 348.337 212.167Z" fill="#263238"/>
<path d="M148.841 368.328L147.857 367.737L175.248 322.286L218.15 334.399L251.498 289.814L292.771 302.719L437.696 170.159L438.468 171.004L293.067 304.007L251.932 291.145L218.595 335.719L175.777 323.628L148.841 368.328Z" fill="#79D941"/>
<path d="M443.187 165.903C441.435 169.233 440.238 172.824 439.643 176.537L437.41 171.194L432.3 168.512C436.046 168.236 439.723 167.355 443.187 165.903Z" fill="#79D941"/>
<g opacity="0.6">
<path opacity="0.6" d="M148.841 368.328L147.857 367.737L175.248 322.286L218.15 334.399L251.498 289.814L292.771 302.719L437.696 170.159L438.468 171.004L293.067 304.007L251.932 291.145L218.595 335.719L175.777 323.628L148.841 368.328Z" fill="white"/>
<path opacity="0.6" d="M443.187 165.903C441.435 169.233 440.238 172.824 439.643 176.537L437.41 171.194L432.3 168.512C436.046 168.236 439.723 167.355 443.187 165.903Z" fill="white"/>
</g>
<path d="M481.255 339.934L479.056 337.739C478.275 336.959 477.009 336.959 476.228 337.739L465.462 348.484C464.682 349.263 464.682 350.527 465.462 351.306L467.662 353.502C468.443 354.281 469.709 354.281 470.49 353.502L481.255 342.757C482.036 341.977 482.036 340.714 481.255 339.934Z" fill="#263238"/>
<path d="M415.002 395.235L405.109 413.757L423.656 403.884L469.457 355.276L463.691 349.521L415.002 395.235Z" fill="#79D941"/>
<path opacity="0.7" d="M415.002 395.235L405.109 413.757L423.656 403.884L469.457 355.276L463.691 349.521L415.002 395.235Z" fill="white"/>
<path d="M473.371 359.183C472.838 359.714 472.115 360.013 471.361 360.013C470.608 360.013 469.885 359.714 469.351 359.183L459.829 349.679C459.301 349.142 459.005 348.42 459.005 347.667C459.005 346.915 459.301 346.193 459.829 345.656C460.367 345.129 461.091 344.834 461.845 344.834C462.598 344.834 463.322 345.129 463.86 345.656L473.382 355.212C473.9 355.745 474.189 356.458 474.187 357.2C474.185 357.942 473.892 358.654 473.371 359.183Z" fill="#79D941"/>
<path d="M462.474 342.931C463.007 343.463 463.37 344.14 463.517 344.878C463.664 345.615 463.589 346.38 463.3 347.074C463.012 347.769 462.524 348.363 461.898 348.781C461.271 349.199 460.535 349.422 459.781 349.422C459.028 349.422 458.292 349.199 457.665 348.781C457.039 348.363 456.551 347.769 456.262 347.074C455.974 346.38 455.899 345.615 456.046 344.878C456.193 344.14 456.556 343.463 457.089 342.931C457.804 342.221 458.772 341.823 459.781 341.823C460.79 341.823 461.758 342.221 462.474 342.931Z" fill="#79D941"/>
<path d="M476.069 356.501C476.602 357.032 476.965 357.71 477.112 358.447C477.259 359.185 477.184 359.949 476.896 360.644C476.607 361.339 476.119 361.933 475.493 362.35C474.867 362.768 474.13 362.991 473.377 362.991C472.623 362.991 471.887 362.768 471.26 362.35C470.634 361.933 470.146 361.339 469.858 360.644C469.569 359.949 469.494 359.185 469.641 358.447C469.788 357.71 470.151 357.032 470.684 356.501C471.4 355.791 472.368 355.392 473.377 355.392C474.386 355.392 475.354 355.791 476.069 356.501Z" fill="#79D941"/>
<path d="M389.895 261.968C389.356 287.903 373.602 323.036 354.981 326.257C336.361 329.478 321.961 299.572 322.501 273.647C323.04 247.722 338.307 235.578 356.917 232.357C375.528 229.137 390.424 236.043 389.895 261.968Z" fill="white"/>
<path opacity="0.5" d="M389.895 261.968C389.356 287.903 373.602 323.036 354.981 326.257C336.361 329.478 323.95 299.392 324.479 273.457C325.008 247.522 338.307 235.578 356.917 232.357C375.528 229.137 390.424 236.043 389.895 261.968Z" fill="#79D941"/>
<path d="M420.45 262.042C418.726 267.966 421.826 275.484 426.354 279.191C418.675 280.619 411.706 284.597 406.58 290.48C403.903 284.196 407.585 280.596 407.585 280.596C410.886 278.241 408.812 275.611 408.061 270.828L420.45 262.042Z" fill="#7F3E3B"/>
<path d="M393.662 297.164C393.418 301.23 385.653 315.19 393.524 316.056C394.466 323.913 398.063 339.056 402.972 342.456C408.093 346.522 423.148 345.043 442.615 342.678C442.851 342.65 443.078 342.574 443.284 342.456C443.49 342.337 443.669 342.179 443.811 341.989C443.954 341.8 444.056 341.583 444.112 341.353C444.169 341.123 444.178 340.884 444.139 340.65C442.277 329.404 438.362 316.193 441.684 291.018C441.876 289.565 441.76 288.088 441.343 286.683C440.926 285.278 440.217 283.976 439.264 282.862C438.31 281.748 437.132 280.846 435.807 280.215C434.481 279.585 433.038 279.239 431.57 279.202C429.909 279.202 428.153 279.149 426.354 279.202C420.072 279.225 413.8 279.695 407.585 280.606C405.575 280.944 403.491 281.356 401.512 281.789C394.371 283.32 394.212 287.692 393.662 297.164Z" fill="#79D941"/>
<path d="M400.169 247.659C399.968 248.461 399.386 249 398.857 248.863C398.328 248.725 398.074 247.986 398.275 247.184C398.476 246.381 399.068 245.853 399.587 245.98C400.105 246.107 400.37 246.867 400.169 247.659Z" fill="#263238"/>
<path d="M399.809 246.085L398.031 245.029C398.031 245.029 398.634 246.793 399.809 246.085Z" fill="#263238"/>
<path d="M400.56 240.805C400.549 240.745 400.549 240.684 400.562 240.624C400.575 240.564 400.599 240.507 400.634 240.457C400.668 240.404 400.713 240.358 400.765 240.322C400.817 240.286 400.876 240.261 400.938 240.248C401 240.236 401.064 240.235 401.127 240.248C401.189 240.26 401.248 240.284 401.301 240.32C401.955 240.72 402.503 241.271 402.899 241.927C403.295 242.584 403.527 243.325 403.575 244.09C403.586 244.159 403.581 244.229 403.561 244.296C403.542 244.363 403.508 244.425 403.462 244.478C403.417 244.531 403.36 244.574 403.297 244.603C403.233 244.632 403.164 244.647 403.094 244.647C403.024 244.647 402.955 244.632 402.891 244.603C402.828 244.574 402.771 244.531 402.725 244.478C402.68 244.425 402.646 244.363 402.626 244.296C402.607 244.229 402.602 244.159 402.612 244.09C402.563 243.485 402.37 242.901 402.05 242.385C401.73 241.869 401.292 241.436 400.772 241.122C400.716 241.087 400.668 241.041 400.632 240.986C400.595 240.932 400.571 240.87 400.56 240.805Z" fill="#263238"/>
<path d="M399.015 249.296C397.979 251.022 396.708 252.596 395.238 253.974C395.6 254.343 396.038 254.63 396.523 254.812C397.007 254.995 397.526 255.069 398.042 255.03L399.015 249.296Z" fill="#630F0F"/>
<path d="M427.01 250.996C424.725 260.848 423.963 265.062 418.155 269.328C409.426 275.759 398.053 270.817 397.397 260.489C396.815 251.196 400.666 236.655 410.907 234.322C420.937 232.009 429.253 241.154 427.01 250.996Z" fill="#7F3E3B"/>
<path d="M404.189 247.416C397.936 251.841 394.667 256.044 394.667 258.81C394.667 261.577 396.138 269.043 402.073 270.426C403.169 264.672 405.321 259.169 408.421 254.196C403.893 257.818 402.179 260.373 399.957 258.926C397.735 257.48 402.729 249.275 404.824 248.187C404.517 247.057 404.189 247.416 404.189 247.416Z" fill="#79D941"/>
<path d="M406.633 250.267C399.64 248.926 402.824 240.763 405.998 239.095C400.02 236.676 399.989 226.792 409.098 226.423C417.086 226.053 423.995 230.763 424.312 233.361C430.226 233.614 437.601 240.753 434.807 245.695C439.706 249.158 442.319 261.091 435.421 264.143C444.16 279.36 412.727 281.303 403.618 271.081C396.328 262.865 406.633 250.267 406.633 250.267Z" fill="#263238"/>
<path d="M409.341 253.34C408.911 254.201 408.303 254.961 407.557 255.571C406.811 256.181 405.945 256.626 405.014 256.878C402.634 257.427 401.586 254.766 402.359 252.221C403.057 249.898 405.141 246.814 407.469 247.427C409.796 248.039 410.526 251.08 409.341 253.34Z" fill="#7F3E3B"/>
<path d="M409.024 345.624C409.024 345.624 421.392 399.48 431.655 418.942C440.404 435.511 470.631 453.273 490.723 475.66L496.267 468.352C496.267 468.352 479.804 434.127 456.708 412.215C450.074 356.448 443.938 341.147 443.938 341.147L409.024 345.624Z" fill="#263238"/>
<path opacity="0.5" d="M415.457 371.285C416.567 375.382 417.763 379.733 419.033 384.073C425.083 380.325 429.721 374.685 432.226 368.032L415.457 371.285Z" fill="black"/>
<path d="M509.333 482.756C505.535 479.187 501.038 471.943 497.399 464.466C497.282 464.223 497.115 464.007 496.909 463.832C496.703 463.658 496.462 463.528 496.203 463.452C495.943 463.377 495.671 463.356 495.403 463.393C495.135 463.429 494.878 463.522 494.648 463.664C491.283 465.776 482.925 470.095 484.576 472.112C488.554 476.864 495.579 482.524 487.094 483.4C482.946 483.844 485.655 487.962 488.723 487.962C496.394 487.962 495.843 487.836 500.16 487.688C503.852 487.561 504.731 488.015 507.704 487.952C508.296 487.921 508.866 487.709 509.335 487.346C509.804 486.983 510.15 486.485 510.327 485.919C510.505 485.354 510.505 484.747 510.327 484.182C510.149 483.617 509.802 483.119 509.333 482.756Z" fill="#79D941"/>
<path d="M443.938 341.147C432.998 338.232 418.853 337.979 402.898 340.006C402.898 340.006 345.184 363.143 345.375 391.887C346.062 424.201 346.179 478.965 346.179 478.965H354.347C354.347 478.965 371.655 433.261 369.021 396.671C390.075 388.033 409.13 380.556 423.201 376.607C434.67 373.365 449.556 364.442 443.938 341.147Z" fill="#263238"/>
<path d="M358.24 482.049C357.605 479.578 356.716 480.38 358.039 472.883C358.11 472.496 358.1 472.1 358.011 471.717C357.922 471.335 357.755 470.974 357.521 470.659C357.287 470.343 356.991 470.078 356.651 469.882C356.31 469.685 355.933 469.56 355.542 469.514C351.31 469.039 344.232 468.585 344.433 471.003C344.962 477.254 339.228 482.978 330.013 483.675C325.918 483.971 328.182 487.952 331.197 487.899C338.752 487.899 344.105 487.487 348.358 487.582C351.987 487.656 353.341 487.973 356.262 487.899C358.674 487.857 358.928 484.815 358.24 482.049Z" fill="#79D941"/>
<path d="M351.659 262.834L352.495 265.262C352.495 265.262 353.923 271.767 357.637 275.052L358.854 274.418C359.837 273.909 360.693 273.187 361.36 272.304C362.026 271.422 362.486 270.401 362.705 269.317L362.493 263.34L360.377 259.116C360.088 258.547 359.591 258.11 358.989 257.894C358.388 257.678 357.726 257.7 357.14 257.955L353.056 259.708C352.472 259.958 352.004 260.419 351.746 260.998C351.487 261.578 351.456 262.233 351.659 262.834Z" fill="#7F3E3B"/>
<path d="M403.988 296.932C403.099 297.375 402.465 297.671 401.724 297.988C400.983 298.305 400.274 298.611 399.544 298.896C398.095 299.487 396.624 299.952 395.133 300.491C392.109 301.481 389.014 302.24 385.875 302.761C382.544 303.344 379.157 303.535 375.782 303.331C371.964 303.138 368.232 302.138 364.831 300.396L364.419 300.184C363.883 299.898 363.403 299.519 363.001 299.065C361.197 296.961 359.746 294.578 358.706 292.011C357.784 289.791 357.048 287.499 356.505 285.157C355.994 282.924 355.609 280.665 355.352 278.388C355.097 276.124 354.988 273.845 355.024 271.567C355.037 270.718 355.344 269.9 355.893 269.251C356.443 268.603 357.2 268.164 358.036 268.01C358.872 267.856 359.737 267.995 360.482 268.405C361.227 268.815 361.807 269.469 362.123 270.257L362.208 270.468C362.948 272.285 363.699 274.26 364.482 276.108C365.265 277.956 366.069 279.814 366.937 281.556C367.738 283.237 368.642 284.866 369.645 286.435C370.425 287.715 371.392 288.871 372.512 289.867L370.682 288.6C372.49 289.209 374.393 289.488 376.3 289.424C377.429 289.41 378.557 289.325 379.675 289.17C380.828 289.022 382.013 288.832 383.219 288.558C385.683 288.02 388.114 287.34 390.498 286.52C391.715 286.118 392.932 285.664 394.127 285.21L395.915 284.503C396.476 284.281 397.153 283.996 397.545 283.827L397.778 283.721C399.537 282.899 401.551 282.809 403.378 283.469C405.204 284.129 406.693 285.487 407.516 287.243C408.34 288.999 408.431 291.01 407.769 292.833C407.108 294.656 405.747 296.142 403.988 296.964V296.932Z" fill="#803E3C"/>
<path d="M400.56 282C396.116 282.972 388.636 285.633 381.876 288.125C380.818 294.756 383.526 302.212 387.356 307.08C423.127 299.53 409.839 279.983 400.56 282Z" fill="#79D941"/>
<path d="M468.124 337.408L469.478 347.62L478.207 343.554C478.207 343.554 477.149 335.317 472.112 334.547L468.124 337.408Z" fill="#7F3E3B"/>
<path d="M476.069 350.777L477.667 349.795C478.087 349.536 478.451 349.197 478.74 348.797C479.028 348.397 479.235 347.945 479.348 347.465C479.461 346.985 479.478 346.488 479.398 346.002C479.319 345.516 479.144 345.05 478.884 344.631L478.207 343.575L469.478 347.641L471.065 349.827C471.625 350.586 472.452 351.106 473.38 351.282C474.308 351.458 475.269 351.278 476.069 350.777Z" fill="#7F3E3B"/>
<path d="M438.489 282.876C442.721 286.287 446.794 289.836 450.804 293.532C452.8 295.369 454.775 297.259 456.729 299.202C458.708 301.145 460.601 303.131 462.59 305.433L462.802 305.676L463.098 306.035C463.299 306.277 463.5 306.531 463.627 306.721L464.05 307.344L464.41 307.914C464.865 308.675 465.235 309.35 465.585 310.026C466.272 311.399 466.854 312.698 467.415 314.007C468.547 316.605 469.478 319.192 470.409 321.78C472.22 326.936 473.756 332.185 475.011 337.503C475.208 338.354 475.094 339.247 474.689 340.022C474.285 340.796 473.617 341.401 472.805 341.727C471.993 342.053 471.092 342.079 470.263 341.8C469.433 341.521 468.731 340.956 468.282 340.207C465.532 335.624 462.992 330.924 460.358 326.341C459.088 324.029 457.755 321.769 456.465 319.583C455.819 318.527 455.163 317.471 454.507 316.468C454.072 315.743 453.542 315.078 452.931 314.493C451.238 312.899 449.228 311.198 447.26 309.509L441.187 304.44C437.145 301.05 433.04 297.629 429.084 294.133C427.654 292.868 426.776 291.096 426.636 289.195C426.496 287.293 427.105 285.412 428.333 283.952C429.562 282.492 431.313 281.568 433.214 281.377C435.114 281.186 437.015 281.743 438.51 282.929L438.489 282.876Z" fill="#803E3C"/>
<path d="M428.639 279.349C437.262 278.959 442.605 282.517 449.196 290.67C447.017 297.481 443.705 303.194 438.362 306.372C420.175 294.693 419.181 279.772 428.639 279.349Z" fill="#79D941"/>
<path d="M347.723 277.618C360.314 282.475 367.37 275.178 367.751 272.211C370.989 277.713 367.561 283.426 361.647 284.756C355.732 286.087 349.437 282.665 347.723 277.618Z" fill="#79D941"/>
</svg>
